<svg preserveAspectRatio="none" width="100%" height="100%" overflow="visible" style="display: block;" viewBox="0 0 20 20" fill="none" xmlns="http://www.w3.org/2000/svg">
<g id="bank">
<path id="Vector" d="M17.5 9.79168H2.5C1.7 9.79168 1.04167 9.13334 1.04167 8.33334V5.56667C1.04167 5 1.43331 4.42501 1.95831 4.21667L9.45831 1.2167C9.77498 1.0917 10.225 1.0917 10.5417 1.2167L18.0417 4.21667C18.5667 4.42501 18.9583 5.00834 18.9583 5.56667V8.33334C18.9583 9.13334 18.3 9.79168 17.5 9.79168ZM10 2.3667C9.96667 2.3667 9.93335 2.36666 9.91669 2.37499L2.42498 5.37502C2.37498 5.40002 2.29167 5.50834 2.29167 5.56667V8.33334C2.29167 8.45001 2.38333 8.54168 2.5 8.54168H17.5C17.6167 8.54168 17.7083 8.45001 17.7083 8.33334V5.56667C17.7083 5.50834 17.6334 5.40002 17.575 5.37502L10.075 2.37499C10.0584 2.36666 10.0333 2.3667 10 2.3667Z" fill="var(--fill-0, #45464F)"/>
<path id="Vector_2" d="M18.3333 18.9583H1.66667C1.325 18.9583 1.04167 18.675 1.04167 18.3333V15.8333C1.04167 15.0333 1.7 14.375 2.5 14.375H17.5C18.3 14.375 18.9583 15.0333 18.9583 15.8333V18.3333C18.9583 18.675 18.675 18.9583 18.3333 18.9583ZM2.29167 17.7083H17.7083V15.8333C17.7083 15.7167 17.6167 15.625 17.5 15.625H2.5C2.38333 15.625 2.29167 15.7167 2.29167 15.8333V17.7083Z" fill="var(--fill-0, #45464F)"/>
<path id="Vector_3" d="M3.33333 15.625C2.99167 15.625 2.70833 15.3417 2.70833 15V9.16667C2.70833 8.825 2.99167 8.54167 3.33333 8.54167C3.675 8.54167 3.95833 8.825 3.95833 9.16667V15C3.95833 15.3417 3.675 15.625 3.33333 15.625Z" fill="var(--fill-0, #45464F)"/>
<path id="Vector_4" d="M6.66667 15.625C6.325 15.625 6.04167 15.3417 6.04167 15V9.16667C6.04167 8.825 6.325 8.54167 6.66667 8.54167C7.00833 8.54167 7.29167 8.825 7.29167 9.16667V15C7.29167 15.3417 7.00833 15.625 6.66667 15.625Z" fill="var(--fill-0, #45464F)"/>
<path id="Vector_5" d="M10 15.625C9.65833 15.625 9.375 15.3417 9.375 15V9.16667C9.375 8.825 9.65833 8.54167 10 8.54167C10.3417 8.54167 10.625 8.825 10.625 9.16667V15C10.625 15.3417 10.3417 15.625 10 15.625Z" fill="var(--fill-0, #45464F)"/>
<path id="Vector_6" d="M13.3333 15.625C12.9917 15.625 12.7083 15.3417 12.7083 15V9.16667C12.7083 8.825 12.9917 8.54167 13.3333 8.54167C13.675 8.54167 13.9583 8.825 13.9583 9.16667V15C13.9583 15.3417 13.675 15.625 13.3333 15.625Z" fill="var(--fill-0, #45464F)"/>
<path id="Vector_7" d="M16.6667 15.625C16.325 15.625 16.0417 15.3417 16.0417 15V9.16667C16.0417 8.825 16.325 8.54167 16.6667 8.54167C17.0083 8.54167 17.2917 8.825 17.2917 9.16667V15C17.2917 15.3417 17.0083 15.625 16.6667 15.625Z" fill="var(--fill-0, #45464F)"/>
<path id="Vector_8" d="M19.1667 18.9583H0.833333C0.491667 18.9583 0.208333 18.675 0.208333 18.3333C0.208333 17.9917 0.491667 17.7083 0.833333 17.7083H19.1667C19.5083 17.7083 19.7917 17.9917 19.7917 18.3333C19.7917 18.675 19.5083 18.9583 19.1667 18.9583Z" fill="var(--fill-0, #45464F)"/>
<path id="Vector_9" d="M10 7.70833C8.96667 7.70833 8.125 6.86667 8.125 5.83333C8.125 4.8 8.96667 3.95833 10 3.95833C11.0333 3.95833 11.875 4.8 11.875 5.83333C11.875 6.86667 11.0333 7.70833 10 7.70833ZM10 5.20833C9.65833 5.20833 9.375 5.49167 9.375 5.83333C9.375 6.175 9.65833 6.45833 10 6.45833C10.3417 6.45833 10.625 6.175 10.625 5.83333C10.625 5.49167 10.3417 5.20833 10 5.20833Z" fill="var(--fill-0, #45464F)"/>
<g id="Vector_10" opacity="0">
</g>
</g>
</svg>
