<svg preserveAspectRatio="none" width="100%" height="100%" overflow="visible" style="display: block;" viewBox="0 0 20 24" fill="none" xmlns="http://www.w3.org/2000/svg">
<g id="Vector">
<path d="M0 1.6C0 0.716345 0.447715 0 1 0H3C3.55228 0 4 0.716344 4 1.6V8C4 8.88366 3.55228 9.6 3 9.6H1C0.447715 9.6 0 8.88366 0 8V1.6Z" fill="white"/>
<path d="M7 1.6C7 0.716345 7.44771 0 8 0H12C12.5523 0 13 0.716344 13 1.6V8C13 8.88366 12.5523 9.6 12 9.6H8C7.44772 9.6 7 8.88366 7 8V1.6Z" fill="white"/>
<path d="M16 1.6C16 0.716345 16.4477 0 17 0H19C19.5523 0 20 0.716344 20 1.6V8C20 8.88366 19.5523 9.6 19 9.6H17C16.4477 9.6 16 8.88366 16 8V1.6Z" fill="var(--fill-0, #477BFF)"/>
<path d="M0 16C0 15.1163 0.447715 14.4 1 14.4H3C3.55228 14.4 4 15.1163 4 16V22.4C4 23.2837 3.55228 24 3 24H1C0.447715 24 0 23.2837 0 22.4V16Z" fill="white"/>
<path d="M7 16C7 15.1163 7.44771 14.4 8 14.4H12C12.5523 14.4 13 15.1163 13 16V22.4C13 23.2837 12.5523 24 12 24H8C7.44772 24 7 23.2837 7 22.4V16Z" fill="white"/>
<path d="M16 16C16 15.1163 16.4477 14.4 17 14.4H19C19.5523 14.4 20 15.1163 20 16V22.4C20 23.2837 19.5523 24 19 24H17C16.4477 24 16 23.2837 16 22.4V16Z" fill="var(--fill-0, #477BFF)"/>
</g>
</svg>
