<svg preserveAspectRatio="none" width="100%" height="100%" overflow="visible" style="display: block;" viewBox="0 0 20 20" fill="none" xmlns="http://www.w3.org/2000/svg">
<g id="presention-chart">
<path id="Vector" d="M15.0833 14.7917H4.91666C2.98333 14.7917 1.875 13.6833 1.875 11.75V1.66667C1.875 1.325 2.15833 1.04167 2.5 1.04167H17.5C17.8417 1.04167 18.125 1.325 18.125 1.66667V11.75C18.125 13.6833 17.0167 14.7917 15.0833 14.7917ZM3.125 2.29167V11.75C3.125 12.9917 3.67499 13.5417 4.91666 13.5417H15.075C16.3167 13.5417 16.8667 12.9917 16.8667 11.75V2.29167H3.125Z" fill="var(--fill-0, #1B1B21)"/>
<path id="Vector_2" d="M18.3333 2.29167H1.66667C1.325 2.29167 1.04167 2.00833 1.04167 1.66667C1.04167 1.325 1.325 1.04167 1.66667 1.04167H18.3333C18.675 1.04167 18.9583 1.325 18.9583 1.66667C18.9583 2.00833 18.675 2.29167 18.3333 2.29167Z" fill="var(--fill-0, #1B1B21)"/>
<path id="Vector_3" d="M6.66689 18.9583C6.43355 18.9583 6.21688 18.8333 6.10854 18.6167C5.95021 18.3083 6.07523 17.9333 6.3919 17.775L9.37522 16.2833V14.1667C9.37522 13.825 9.65855 13.5417 10.0002 13.5417C10.3419 13.5417 10.6252 13.825 10.6252 14.1667V16.6667C10.6252 16.9 10.4919 17.1167 10.2752 17.225L6.94188 18.8917C6.85854 18.9333 6.75855 18.9583 6.66689 18.9583Z" fill="var(--fill-0, #1B1B21)"/>
<path id="Vector_4" d="M13.3333 18.9583C13.2416 18.9583 13.1416 18.9333 13.0583 18.8917L9.72497 17.225C9.41664 17.0667 9.29161 16.6917 9.44161 16.3833C9.59995 16.075 9.97495 15.95 10.2833 16.1L13.6166 17.7667C13.925 17.925 14.05 18.3 13.9 18.6083C13.7833 18.8333 13.5583 18.9583 13.3333 18.9583Z" fill="var(--fill-0, #1B1B21)"/>
<path id="Vector_5" d="M6.24994 9.79166C6.07494 9.79166 5.89162 9.71667 5.76662 9.56667C5.54162 9.3 5.58326 8.90834 5.84993 8.68334L8.47495 6.49166C8.71662 6.29166 9.02493 6.20833 9.3166 6.25833C9.6166 6.30833 9.87495 6.49165 10.0333 6.75831L10.9083 8.21665L13.3499 6.18334C13.6166 5.96667 14.0083 5.99998 14.2333 6.26665C14.4583 6.53331 14.4166 6.92498 14.1499 7.14998L11.5249 9.34165C11.2833 9.54165 10.9749 9.62498 10.6833 9.57498C10.3833 9.52498 10.1249 9.34167 9.9666 9.075L9.09161 7.61667L6.64995 9.64998C6.53328 9.74165 6.39161 9.79166 6.24994 9.79166Z" fill="var(--fill-0, #1B1B21)"/>
<g id="Vector_6" opacity="0">
</g>
</g>
</svg>
