<svg preserveAspectRatio="none" width="100%" height="100%" overflow="visible" style="display: block;" viewBox="0 0 20 20" fill="none" xmlns="http://www.w3.org/2000/svg">
<g id="chart">
<path id="Vector" d="M18.3333 18.9583H1.66667C1.325 18.9583 1.04167 18.675 1.04167 18.3333C1.04167 17.9917 1.325 17.7083 1.66667 17.7083H18.3333C18.675 17.7083 18.9583 17.9917 18.9583 18.3333C18.9583 18.675 18.675 18.9583 18.3333 18.9583Z" fill="var(--fill-0, #1B1B21)"/>
<path id="Vector_2" d="M11.875 18.9583H8.125C7.78333 18.9583 7.5 18.675 7.5 18.3333V3.33333C7.5 1.9 8.29167 1.04167 9.625 1.04167H10.375C11.7083 1.04167 12.5 1.9 12.5 3.33333V18.3333C12.5 18.675 12.2167 18.9583 11.875 18.9583ZM8.75 17.7083H11.25V3.33333C11.25 2.375 10.8 2.29167 10.375 2.29167H9.625C9.2 2.29167 8.75 2.375 8.75 3.33333V17.7083V17.7083Z" fill="var(--fill-0, #1B1B21)"/>
<path id="Vector_3" d="M5.83333 18.9583H2.5C2.15833 18.9583 1.875 18.675 1.875 18.3333V8.33333C1.875 6.9 2.60833 6.04167 3.83333 6.04167H4.5C5.725 6.04167 6.45833 6.9 6.45833 8.33333V18.3333C6.45833 18.675 6.175 18.9583 5.83333 18.9583ZM3.125 17.7083H5.20833V8.33333C5.20833 7.29167 4.75 7.29167 4.5 7.29167H3.83333C3.58333 7.29167 3.125 7.29167 3.125 8.33333V17.7083V17.7083Z" fill="var(--fill-0, #1B1B21)"/>
<path id="Vector_4" d="M17.5 18.9583H14.1667C13.825 18.9583 13.5417 18.675 13.5417 18.3333V12.5C13.5417 11.0667 14.275 10.2083 15.5 10.2083H16.1667C17.3917 10.2083 18.125 11.0667 18.125 12.5V18.3333C18.125 18.675 17.8417 18.9583 17.5 18.9583ZM14.7917 17.7083H16.875V12.5C16.875 11.4583 16.4167 11.4583 16.1667 11.4583H15.5C15.25 11.4583 14.7917 11.4583 14.7917 12.5V17.7083V17.7083Z" fill="var(--fill-0, #1B1B21)"/>
<g id="Vector_5" opacity="0">
</g>
</g>
</svg>
