<svg preserveAspectRatio="none" width="100%" height="100%" overflow="visible" style="display: block;" viewBox="0 0 20 20" fill="none" xmlns="http://www.w3.org/2000/svg">
<g id="grid-6">
<path id="Vector" d="M12.5 18.9583H7.5C2.975 18.9583 1.04167 17.025 1.04167 12.5V7.5C1.04167 2.975 2.975 1.04167 7.5 1.04167H12.5C17.025 1.04167 18.9583 2.975 18.9583 7.5V12.5C18.9583 17.025 17.025 18.9583 12.5 18.9583ZM7.5 2.29167C3.65833 2.29167 2.29167 3.65833 2.29167 7.5V12.5C2.29167 16.3417 3.65833 17.7083 7.5 17.7083H12.5C16.3417 17.7083 17.7083 16.3417 17.7083 12.5V7.5C17.7083 3.65833 16.3417 2.29167 12.5 2.29167H7.5Z" fill="var(--fill-0, #1B1B21)"/>
<path id="Vector_2" d="M8.33333 18.9583C7.99167 18.9583 7.70833 18.675 7.70833 18.3333V1.66667C7.70833 1.325 7.99167 1.04167 8.33333 1.04167C8.675 1.04167 8.95833 1.325 8.95833 1.66667V18.3333C8.95833 18.675 8.675 18.9583 8.33333 18.9583Z" fill="var(--fill-0, #1B1B21)"/>
<path id="Vector_3" d="M18.3333 7.70833H8.33333C7.99167 7.70833 7.70833 7.425 7.70833 7.08333C7.70833 6.74167 7.99167 6.45833 8.33333 6.45833H18.3333C18.675 6.45833 18.9583 6.74167 18.9583 7.08333C18.9583 7.425 18.675 7.70833 18.3333 7.70833Z" fill="var(--fill-0, #1B1B21)"/>
<path id="Vector_4" d="M18.3333 13.5417H8.33333C7.99167 13.5417 7.70833 13.2583 7.70833 12.9167C7.70833 12.575 7.99167 12.2917 8.33333 12.2917H18.3333C18.675 12.2917 18.9583 12.575 18.9583 12.9167C18.9583 13.2583 18.675 13.5417 18.3333 13.5417Z" fill="var(--fill-0, #1B1B21)"/>
<g id="Vector_5" opacity="0">
</g>
</g>
</svg>
