<svg preserveAspectRatio="none" width="100%" height="100%" overflow="visible" style="display: block;" viewBox="0 0 20 20" fill="none" xmlns="http://www.w3.org/2000/svg">
<g id="message-question">
<path id="Vector" d="M6.66667 18.5999C6.43333 18.5999 6.19165 18.5416 5.97499 18.4249C5.49999 18.1749 5.20833 17.6749 5.20833 17.1416V15.9583C2.69167 15.7 1.04167 13.8499 1.04167 11.1999V6.19995C1.04167 3.33328 2.96667 1.40828 5.83333 1.40828H14.1667C17.0333 1.40828 18.9583 3.33328 18.9583 6.19995V11.1999C18.9583 14.0666 17.0333 15.9916 14.1667 15.9916H11.025L7.47498 18.3583C7.23331 18.5166 6.95 18.5999 6.66667 18.5999ZM5.83333 2.64994C3.68333 2.64994 2.29167 4.04161 2.29167 6.19161V11.1917C2.29167 13.3417 3.68333 14.7333 5.83333 14.7333C6.175 14.7333 6.45833 15.0167 6.45833 15.3583V17.1333C6.45833 17.2417 6.525 17.2916 6.56667 17.3166C6.60834 17.3416 6.69168 17.3666 6.78335 17.3083L10.4917 14.8417C10.5917 14.775 10.7167 14.7333 10.8417 14.7333H14.175C16.325 14.7333 17.7167 13.3417 17.7167 11.1917V6.19161C17.7167 4.04161 16.325 2.64994 14.175 2.64994H5.83333V2.64994Z" fill="var(--fill-0, #1B1B21)"/>
<path id="Vector_2" d="M9.99985 10.0917C9.65818 10.0917 9.37485 9.80832 9.37485 9.46665V9.29169C9.37485 8.32502 10.0832 7.85001 10.3498 7.66668C10.6582 7.45834 10.7582 7.31668 10.7582 7.10002C10.7582 6.68335 10.4165 6.34165 9.99985 6.34165C9.58318 6.34165 9.24154 6.68335 9.24154 7.10002C9.24154 7.44168 8.9582 7.72502 8.61654 7.72502C8.27487 7.72502 7.99154 7.44168 7.99154 7.10002C7.99154 5.99168 8.89151 5.09165 9.99985 5.09165C11.1082 5.09165 12.0082 5.99168 12.0082 7.10002C12.0082 8.05002 11.3082 8.525 11.0499 8.7C10.7249 8.91667 10.6248 9.05835 10.6248 9.29169V9.46665C10.6248 9.81665 10.3415 10.0917 9.99985 10.0917Z" fill="var(--fill-0, #1B1B21)"/>
<path id="Vector_3" d="M10 12.1666C9.65 12.1666 9.375 11.8833 9.375 11.5416C9.375 11.2 9.65833 10.9166 10 10.9166C10.3417 10.9166 10.625 11.2 10.625 11.5416C10.625 11.8833 10.35 12.1666 10 12.1666Z" fill="var(--fill-0, #1B1B21)"/>
<g id="Vector_4" opacity="0">
</g>
</g>
</svg>
