<svg preserveAspectRatio="none" width="100%" height="100%" overflow="visible" style="display: block;" viewBox="0 0 20 20" fill="none" xmlns="http://www.w3.org/2000/svg">
<g id="element-4">
<path id="Vector" d="M16.475 11.4583H13.1083C11.4333 11.4583 10.625 10.6833 10.625 9.08333V3.41667C10.625 1.81667 11.4417 1.04167 13.1083 1.04167H16.475C18.15 1.04167 18.9583 1.81667 18.9583 3.41667V9.08333C18.9583 10.6833 18.1417 11.4583 16.475 11.4583ZM13.1083 2.29167C12.05 2.29167 11.875 2.575 11.875 3.41667V9.08333C11.875 9.925 12.05 10.2083 13.1083 10.2083H16.475C17.5333 10.2083 17.7083 9.925 17.7083 9.08333V3.41667C17.7083 2.575 17.5333 2.29167 16.475 2.29167H13.1083V2.29167Z" fill="var(--fill-0, #1B1B21)"/>
<path id="Vector_2" d="M16.475 18.9583H13.1083C11.4333 18.9583 10.625 18.1833 10.625 16.5833V15.0833C10.625 13.4833 11.4417 12.7083 13.1083 12.7083H16.475C18.15 12.7083 18.9583 13.4833 18.9583 15.0833V16.5833C18.9583 18.1833 18.1417 18.9583 16.475 18.9583ZM13.1083 13.9583C12.05 13.9583 11.875 14.2417 11.875 15.0833V16.5833C11.875 17.425 12.05 17.7083 13.1083 17.7083H16.475C17.5333 17.7083 17.7083 17.425 17.7083 16.5833V15.0833C17.7083 14.2417 17.5333 13.9583 16.475 13.9583H13.1083Z" fill="var(--fill-0, #1B1B21)"/>
<path id="Vector_3" d="M6.89167 18.9583H3.525C1.85 18.9583 1.04167 18.1833 1.04167 16.5833V10.9167C1.04167 9.31667 1.85833 8.54167 3.525 8.54167H6.89167C8.56667 8.54167 9.375 9.31667 9.375 10.9167V16.5833C9.375 18.1833 8.55833 18.9583 6.89167 18.9583ZM3.525 9.79167C2.46667 9.79167 2.29167 10.075 2.29167 10.9167V16.5833C2.29167 17.425 2.46667 17.7083 3.525 17.7083H6.89167C7.95 17.7083 8.125 17.425 8.125 16.5833V10.9167C8.125 10.075 7.95 9.79167 6.89167 9.79167H3.525V9.79167Z" fill="var(--fill-0, #1B1B21)"/>
<path id="Vector_4" d="M6.89167 7.29167H3.525C1.85 7.29167 1.04167 6.51667 1.04167 4.91667V3.41667C1.04167 1.81667 1.85833 1.04167 3.525 1.04167H6.89167C8.56667 1.04167 9.375 1.81667 9.375 3.41667V4.91667C9.375 6.51667 8.55833 7.29167 6.89167 7.29167ZM3.525 2.29167C2.46667 2.29167 2.29167 2.575 2.29167 3.41667V4.91667C2.29167 5.75833 2.46667 6.04167 3.525 6.04167H6.89167C7.95 6.04167 8.125 5.75833 8.125 4.91667V3.41667C8.125 2.575 7.95 2.29167 6.89167 2.29167H3.525V2.29167Z" fill="var(--fill-0, #1B1B21)"/>
<g id="Vector_5" opacity="0">
</g>
</g>
</svg>
