<svg preserveAspectRatio="none" width="100%" height="100%" overflow="visible" style="display: block;" viewBox="0 0 20 20" fill="none" xmlns="http://www.w3.org/2000/svg">
<g id="book-square">
<path id="Vector" d="M12.5 18.9583H7.5C2.975 18.9583 1.04167 17.025 1.04167 12.5V7.5C1.04167 2.975 2.975 1.04167 7.5 1.04167H12.5C17.025 1.04167 18.9583 2.975 18.9583 7.5V12.5C18.9583 17.025 17.025 18.9583 12.5 18.9583ZM7.5 2.29167C3.65833 2.29167 2.29167 3.65833 2.29167 7.5V12.5C2.29167 16.3417 3.65833 17.7083 7.5 17.7083H12.5C16.3417 17.7083 17.7083 16.3417 17.7083 12.5V7.5C17.7083 3.65833 16.3417 2.29167 12.5 2.29167H7.5Z" fill="var(--fill-0, #1B1B21)"/>
<path id="Vector_2" d="M10.0001 15.7916C9.8001 15.7916 9.60011 15.7416 9.43344 15.65C8.46677 15.125 6.75844 14.5583 5.68344 14.4166L5.52511 14.3916C4.70844 14.2916 4.05843 13.5583 4.05843 12.7166V6.29997C4.05843 5.82497 4.25845 5.36664 4.60012 5.04997C4.95012 4.7333 5.4001 4.57498 5.88343 4.61665C7.1001 4.71665 8.86678 5.29998 9.90845 5.94998L9.99176 5.99998L10.0251 5.97498C11.0751 5.31665 12.8418 4.72498 14.0668 4.61665C14.0834 4.61665 14.1334 4.61665 14.1501 4.61665C14.5834 4.57498 15.0501 4.74164 15.3917 5.04997C15.7417 5.36664 15.9334 5.80829 15.9334 6.29163V12.7C15.9334 13.5333 15.2834 14.2666 14.4584 14.375L14.2834 14.4C13.2168 14.5416 11.5001 15.1083 10.5501 15.6333C10.3917 15.75 10.2001 15.7916 10.0001 15.7916ZM5.74178 5.87496C5.62511 5.87496 5.52508 5.91663 5.45008 5.9833C5.35842 6.06663 5.31677 6.18331 5.31677 6.30831V12.725C5.31677 12.925 5.50012 13.1333 5.69178 13.1583L5.85012 13.1833C7.06678 13.35 8.93345 13.9583 10.0168 14.55C11.0251 13.9666 12.9001 13.3416 14.1251 13.1833L14.3084 13.1583C14.5001 13.1333 14.6834 12.925 14.6834 12.725V6.31663C14.6834 6.18329 14.6335 6.07497 14.5501 5.99164C14.4585 5.90831 14.3418 5.87497 14.2084 5.8833C14.1918 5.8833 14.1418 5.8833 14.1251 5.8833C13.1584 5.96664 11.5668 6.49996 10.7001 7.04996L10.6168 7.09996C10.2501 7.32496 9.73344 7.32497 9.38344 7.1083L9.25842 7.03331C8.38342 6.48331 6.79177 5.95829 5.78344 5.87496C5.76677 5.87496 5.75845 5.87496 5.74178 5.87496Z" fill="var(--fill-0, #1B1B21)"/>
<path id="Vector_3" d="M10 15.3416C9.65833 15.3416 9.375 15.0583 9.375 14.7166V6.74998C9.375 6.40831 9.65833 6.12498 10 6.12498C10.3417 6.12498 10.625 6.40831 10.625 6.74998V14.7166C10.625 15.0666 10.3417 15.3416 10 15.3416Z" fill="var(--fill-0, #1B1B21)"/>
<g id="Vector_4" opacity="0">
</g>
</g>
</svg>
