<svg preserveAspectRatio="none" width="100%" height="100%" overflow="visible" style="display: block;" viewBox="0 0 20 20" fill="none" xmlns="http://www.w3.org/2000/svg">
<g id="convert-card">
<g id="Vector" opacity="0">
</g>
<path id="Vector_2" d="M18.3333 12.5C18.3333 15.725 15.725 18.3333 12.5 18.3333L13.375 16.875" stroke="var(--stroke-0, #374379)" stroke-width="1.5" stroke-linecap="round" stroke-linejoin="round"/>
<path id="Vector_3" d="M1.66667 7.5C1.66667 4.275 4.275 1.66667 7.5 1.66667L6.625 3.125" stroke="var(--stroke-0, #374379)" stroke-width="1.5" stroke-linecap="round" stroke-linejoin="round"/>
<path id="Vector_4" d="M18.3333 3.5V3.59167C18.3333 3.825 18.15 4.00833 17.9167 4.00833H10.4167C10.1833 4.00833 10 3.825 10 3.59167V3.5C10 2.03333 10.3667 1.66667 11.85 1.66667H16.4833C17.9667 1.66667 18.3333 2.03333 18.3333 3.5Z" fill="var(--fill-0, #374379)"/>
<path id="Vector_5" d="M10.4167 4.84131C10.1833 4.84131 10 5.02464 10 5.25798V6.09131V6.91631C10 8.38298 10.3667 8.74964 11.85 8.74964H16.4833C17.9667 8.74964 18.3333 8.38298 18.3333 6.91631V6.09131V5.25798C18.3333 5.02464 18.15 4.84131 17.9167 4.84131H10.4167Z" fill="var(--fill-0, #374379)"/>
<path id="Vector_6" d="M10 13.0833V13.175C10 13.4083 9.81667 13.5917 9.58333 13.5917H2.08333C1.85 13.5917 1.66667 13.4083 1.66667 13.175V13.0833C1.66667 11.6167 2.03333 11.25 3.51667 11.25H8.15C9.63333 11.25 10 11.6167 10 13.0833Z" fill="var(--fill-0, #374379)"/>
<path id="Vector_7" d="M2.08333 14.4246C1.85 14.4246 1.66667 14.608 1.66667 14.8413V15.6746V16.4996C1.66667 17.9663 2.03333 18.333 3.51667 18.333H8.15C9.63333 18.333 10 17.9663 10 16.4996V15.6746V14.8413C10 14.608 9.81667 14.4246 9.58333 14.4246H2.08333V14.4246Z" fill="var(--fill-0, #374379)"/>
</g>
</svg>
